<svg id="visual" viewBox="0 0 1080 1920" width="1080" height="1920" xmlns="http://www.w3.org/2000/svg" xmlns:xlink="http://www.w3.org/1999/xlink" version="1.1"><rect x="0" y="0" width="1080" height="1920" fill="#001220"></rect><defs><linearGradient id="grad1_0" x1="0%" y1="100%" x2="100%" y2="0%"><stop offset="30%" stop-color="#63b046" stop-opacity="1"></stop><stop offset="70%" stop-color="#63b046" stop-opacity="1"></stop></linearGradient></defs><defs><linearGradient id="grad1_1" x1="0%" y1="100%" x2="100%" y2="0%"><stop offset="30%" stop-color="#63b046" stop-opacity="1"></stop><stop offset="70%" stop-color="#179b57" stop-opacity="1"></stop></linearGradient></defs><defs><linearGradient id="grad1_2" x1="0%" y1="100%" x2="100%" y2="0%"><stop offset="30%" stop-color="#008463" stop-opacity="1"></stop><stop offset="70%" stop-color="#179b57" stop-opacity="1"></stop></linearGradient></defs><defs><linearGradient id="grad1_3" x1="0%" y1="100%" x2="100%" y2="0%"><stop offset="30%" stop-color="#008463" stop-opacity="1"></stop><stop offset="70%" stop-color="#006d66" stop-opacity="1"></stop></linearGradient></defs><defs><linearGradient id="grad1_4" x1="0%" y1="100%" x2="100%" y2="0%"><stop offset="30%" stop-color="#005560" stop-opacity="1"></stop><stop offset="70%" stop-color="#006d66" stop-opacity="1"></stop></linearGradient></defs><defs><linearGradient id="grad1_5" x1="0%" y1="100%" x2="100%" y2="0%"><stop offset="30%" stop-color="#005560" stop-opacity="1"></stop><stop offset="70%" stop-color="#003d50" stop-opacity="1"></stop></linearGradient></defs><defs><linearGradient id="grad1_6" x1="0%" y1="100%" x2="100%" y2="0%"><stop offset="30%" stop-color="#00273a" stop-opacity="1"></stop><stop offset="70%" stop-color="#003d50" stop-opacity="1"></stop></linearGradient></defs><defs><linearGradient id="grad1_7" x1="0%" y1="100%" x2="100%" y2="0%"><stop offset="30%" stop-color="#00273a" stop-opacity="1"></stop><stop offset="70%" stop-color="#001220" stop-opacity="1"></stop></linearGradient></defs><defs><linearGradient id="grad2_0" x1="0%" y1="100%" x2="100%" y2="0%"><stop offset="30%" stop-color="#63b046" stop-opacity="1"></stop><stop offset="70%" stop-color="#63b046" stop-opacity="1"></stop></linearGradient></defs><defs><linearGradient id="grad2_1" x1="0%" y1="100%" x2="100%" y2="0%"><stop offset="30%" stop-color="#179b57" stop-opacity="1"></stop><stop offset="70%" stop-color="#63b046" stop-opacity="1"></stop></linearGradient></defs><defs><linearGradient id="grad2_2" x1="0%" y1="100%" x2="100%" y2="0%"><stop offset="30%" stop-color="#179b57" stop-opacity="1"></stop><stop offset="70%" stop-color="#008463" stop-opacity="1"></stop></linearGradient></defs><defs><linearGradient id="grad2_3" x1="0%" y1="100%" x2="100%" y2="0%"><stop offset="30%" stop-color="#006d66" stop-opacity="1"></stop><stop offset="70%" stop-color="#008463" stop-opacity="1"></stop></linearGradient></defs><defs><linearGradient id="grad2_4" x1="0%" y1="100%" x2="100%" y2="0%"><stop offset="30%" stop-color="#006d66" stop-opacity="1"></stop><stop offset="70%" stop-color="#005560" stop-opacity="1"></stop></linearGradient></defs><defs><linearGradient id="grad2_5" x1="0%" y1="100%" x2="100%" y2="0%"><stop offset="30%" stop-color="#003d50" stop-opacity="1"></stop><stop offset="70%" stop-color="#005560" stop-opacity="1"></stop></linearGradient></defs><defs><linearGradient id="grad2_6" x1="0%" y1="100%" x2="100%" y2="0%"><stop offset="30%" stop-color="#003d50" stop-opacity="1"></stop><stop offset="70%" stop-color="#00273a" stop-opacity="1"></stop></linearGradient></defs><defs><linearGradient id="grad2_7" x1="0%" y1="100%" x2="100%" y2="0%"><stop offset="30%" stop-color="#001220" stop-opacity="1"></stop><stop offset="70%" stop-color="#00273a" stop-opacity="1"></stop></linearGradient></defs><g transform="translate(1080, 1920)"><path d="M-756 0C-688.5 -103.9 -620.9 -207.8 -566.4 -327C-511.8 -446.2 -470.2 -580.7 -378 -654.7C-285.8 -728.8 -142.9 -742.4 0 -756L0 0Z" fill="#001c2d"></path><path d="M-661.5 0C-602.4 -90.9 -543.3 -181.8 -495.6 -286.1C-447.8 -390.4 -411.5 -508.1 -330.8 -572.9C-250 -637.7 -125 -649.6 0 -661.5L0 0Z" fill="#003246"></path><path d="M-567 0C-516.4 -77.9 -465.7 -155.9 -424.8 -245.3C-383.9 -334.6 -352.7 -435.5 -283.5 -491C-214.3 -546.6 -107.2 -556.8 0 -567L0 0Z" fill="#004959"></path><path d="M-472.5 0C-430.3 -64.9 -388.1 -129.9 -354 -204.4C-319.9 -278.9 -293.9 -362.9 -236.3 -409.2C-178.6 -455.5 -89.3 -464 0 -472.5L0 0Z" fill="#006164"></path><path d="M-378 0C-344.2 -52 -310.5 -103.9 -283.2 -163.5C-255.9 -223.1 -235.1 -290.3 -189 -327.4C-142.9 -364.4 -71.4 -371.2 0 -378L0 0Z" fill="#007965"></path><path d="M-283.5 0C-258.2 -39 -232.9 -77.9 -212.4 -122.6C-191.9 -167.3 -176.3 -217.8 -141.8 -245.5C-107.2 -273.3 -53.6 -278.4 0 -283.5L0 0Z" fill="#00905e"></path><path d="M-189 0C-172.1 -26 -155.2 -52 -141.6 -81.8C-128 -111.5 -117.6 -145.2 -94.5 -163.7C-71.4 -182.2 -35.7 -185.6 0 -189L0 0Z" fill="#43a64f"></path><path d="M-94.5 0C-86.1 -13 -77.6 -26 -70.8 -40.9C-64 -55.8 -58.8 -72.6 -47.3 -81.8C-35.7 -91.1 -17.9 -92.8 0 -94.5L0 0Z" fill="#63b046"></path></g><g transform="translate(0, 0)"><path d="M756 0C741.3 141 726.6 282.1 654.7 378C582.8 473.9 453.7 524.8 335 580.2C216.3 635.7 108.2 695.9 0 756L0 0Z" fill="#001c2d"></path><path d="M661.5 0C648.7 123.4 635.8 246.8 572.9 330.7C510 414.7 397 459.2 293.1 507.7C189.3 556.3 94.6 608.9 0 661.5L0 0Z" fill="#003246"></path><path d="M567 0C556 105.8 545 211.6 491 283.5C437.1 355.4 340.2 393.6 251.3 435.2C162.3 476.8 81.1 521.9 0 567L0 0Z" fill="#004959"></path><path d="M472.5 0C463.3 88.1 454.1 176.3 409.2 236.2C364.3 296.2 283.5 328 209.4 362.6C135.2 397.3 67.6 434.9 0 472.5L0 0Z" fill="#006164"></path><path d="M378 0C370.7 70.5 363.3 141 327.4 189C291.4 237 226.8 262.4 167.5 290.1C108.2 317.9 54.1 347.9 0 378L0 0Z" fill="#007965"></path><path d="M283.5 0C278 52.9 272.5 105.8 245.5 141.7C218.6 177.7 170.1 196.8 125.6 217.6C81.1 238.4 40.6 260.9 0 283.5L0 0Z" fill="#00905e"></path><path d="M189 0C185.3 35.3 181.7 70.5 163.7 94.5C145.7 118.5 113.4 131.2 83.8 145.1C54.1 158.9 27 174 0 189L0 0Z" fill="#43a64f"></path><path d="M94.5 0C92.7 17.6 90.8 35.3 81.8 47.2C72.9 59.2 56.7 65.6 41.9 72.5C27 79.5 13.5 87 0 94.5L0 0Z" fill="#63b046"></path></g></svg>