<svg id="visual" viewBox="0 0 1080 1920" width="1080" height="1920" xmlns="http://www.w3.org/2000/svg" xmlns:xlink="http://www.w3.org/1999/xlink" version="1.1"><rect x="0" y="0" width="1080" height="1920" fill="#001220"></rect><defs><linearGradient id="grad1_0" x1="0%" y1="0%" x2="100%" y2="100%"><stop offset="30%" stop-color="#63b046" stop-opacity="1"></stop><stop offset="70%" stop-color="#63b046" stop-opacity="1"></stop></linearGradient></defs><defs><linearGradient id="grad1_1" x1="0%" y1="0%" x2="100%" y2="100%"><stop offset="30%" stop-color="#63b046" stop-opacity="1"></stop><stop offset="70%" stop-color="#179b57" stop-opacity="1"></stop></linearGradient></defs><defs><linearGradient id="grad1_2" x1="0%" y1="0%" x2="100%" y2="100%"><stop offset="30%" stop-color="#008463" stop-opacity="1"></stop><stop offset="70%" stop-color="#179b57" stop-opacity="1"></stop></linearGradient></defs><defs><linearGradient id="grad1_3" x1="0%" y1="0%" x2="100%" y2="100%"><stop offset="30%" stop-color="#008463" stop-opacity="1"></stop><stop offset="70%" stop-color="#006d66" stop-opacity="1"></stop></linearGradient></defs><defs><linearGradient id="grad1_4" x1="0%" y1="0%" x2="100%" y2="100%"><stop offset="30%" stop-color="#005560" stop-opacity="1"></stop><stop offset="70%" stop-color="#006d66" stop-opacity="1"></stop></linearGradient></defs><defs><linearGradient id="grad1_5" x1="0%" y1="0%" x2="100%" y2="100%"><stop offset="30%" stop-color="#005560" stop-opacity="1"></stop><stop offset="70%" stop-color="#003d50" stop-opacity="1"></stop></linearGradient></defs><defs><linearGradient id="grad1_6" x1="0%" y1="0%" x2="100%" y2="100%"><stop offset="30%" stop-color="#00273a" stop-opacity="1"></stop><stop offset="70%" stop-color="#003d50" stop-opacity="1"></stop></linearGradient></defs><defs><linearGradient id="grad1_7" x1="0%" y1="0%" x2="100%" y2="100%"><stop offset="30%" stop-color="#00273a" stop-opacity="1"></stop><stop offset="70%" stop-color="#001220" stop-opacity="1"></stop></linearGradient></defs><defs><linearGradient id="grad2_0" x1="0%" y1="0%" x2="100%" y2="100%"><stop offset="30%" stop-color="#63b046" stop-opacity="1"></stop><stop offset="70%" stop-color="#63b046" stop-opacity="1"></stop></linearGradient></defs><defs><linearGradient id="grad2_1" x1="0%" y1="0%" x2="100%" y2="100%"><stop offset="30%" stop-color="#179b57" stop-opacity="1"></stop><stop offset="70%" stop-color="#63b046" stop-opacity="1"></stop></linearGradient></defs><defs><linearGradient id="grad2_2" x1="0%" y1="0%" x2="100%" y2="100%"><stop offset="30%" stop-color="#179b57" stop-opacity="1"></stop><stop offset="70%" stop-color="#008463" stop-opacity="1"></stop></linearGradient></defs><defs><linearGradient id="grad2_3" x1="0%" y1="0%" x2="100%" y2="100%"><stop offset="30%" stop-color="#006d66" stop-opacity="1"></stop><stop offset="70%" stop-color="#008463" stop-opacity="1"></stop></linearGradient></defs><defs><linearGradient id="grad2_4" x1="0%" y1="0%" x2="100%" y2="100%"><stop offset="30%" stop-color="#006d66" stop-opacity="1"></stop><stop offset="70%" stop-color="#005560" stop-opacity="1"></stop></linearGradient></defs><defs><linearGradient id="grad2_5" x1="0%" y1="0%" x2="100%" y2="100%"><stop offset="30%" stop-color="#003d50" stop-opacity="1"></stop><stop offset="70%" stop-color="#005560" stop-opacity="1"></stop></linearGradient></defs><defs><linearGradient id="grad2_6" x1="0%" y1="0%" x2="100%" y2="100%"><stop offset="30%" stop-color="#003d50" stop-opacity="1"></stop><stop offset="70%" stop-color="#00273a" stop-opacity="1"></stop></linearGradient></defs><defs><linearGradient id="grad2_7" x1="0%" y1="0%" x2="100%" y2="100%"><stop offset="30%" stop-color="#001220" stop-opacity="1"></stop><stop offset="70%" stop-color="#00273a" stop-opacity="1"></stop></linearGradient></defs><g transform="translate(1080, 0)"><path d="M0 756C-103.9 688.5 -207.8 620.9 -327 566.4C-446.2 511.8 -580.7 470.2 -654.7 378C-728.8 285.8 -742.4 142.9 -756 0L0 0Z" fill="#001c2d"></path><path d="M0 661.5C-90.9 602.4 -181.8 543.3 -286.1 495.6C-390.4 447.8 -508.1 411.5 -572.9 330.8C-637.7 250 -649.6 125 -661.5 0L0 0Z" fill="#003246"></path><path d="M0 567C-77.9 516.4 -155.9 465.7 -245.2 424.8C-334.6 383.9 -435.5 352.7 -491 283.5C-546.6 214.3 -556.8 107.2 -567 0L0 0Z" fill="#004959"></path><path d="M0 472.5C-64.9 430.3 -129.9 388.1 -204.4 354C-278.9 319.9 -362.9 293.9 -409.2 236.3C-455.5 178.6 -464 89.3 -472.5 0L0 0Z" fill="#006164"></path><path d="M0 378C-52 344.2 -103.9 310.5 -163.5 283.2C-223.1 255.9 -290.3 235.1 -327.4 189C-364.4 142.9 -371.2 71.4 -378 0L0 0Z" fill="#007965"></path><path d="M0 283.5C-39 258.2 -77.9 232.9 -122.6 212.4C-167.3 191.9 -217.8 176.3 -245.5 141.8C-273.3 107.2 -278.4 53.6 -283.5 0L0 0Z" fill="#00905e"></path><path d="M0 189C-26 172.1 -52 155.2 -81.7 141.6C-111.5 128 -145.2 117.6 -163.7 94.5C-182.2 71.4 -185.6 35.7 -189 0L0 0Z" fill="#43a64f"></path><path d="M0 94.5C-13 86.1 -26 77.6 -40.9 70.8C-55.8 64 -72.6 58.8 -81.8 47.3C-91.1 35.7 -92.8 17.9 -94.5 0L0 0Z" fill="#63b046"></path></g><g transform="translate(0, 1920)"><path d="M0 -756C141 -741.3 282.1 -726.6 378 -654.7C473.9 -582.8 524.8 -453.7 580.2 -335C635.7 -216.3 695.9 -108.2 756 0L0 0Z" fill="#001c2d"></path><path d="M0 -661.5C123.4 -648.7 246.8 -635.8 330.7 -572.9C414.7 -510 459.2 -397 507.7 -293.1C556.3 -189.3 608.9 -94.6 661.5 0L0 0Z" fill="#003246"></path><path d="M0 -567C105.8 -556 211.6 -545 283.5 -491C355.4 -437.1 393.6 -340.2 435.2 -251.3C476.8 -162.3 521.9 -81.1 567 0L0 0Z" fill="#004959"></path><path d="M0 -472.5C88.1 -463.3 176.3 -454.1 236.2 -409.2C296.2 -364.3 328 -283.5 362.6 -209.4C397.3 -135.2 434.9 -67.6 472.5 0L0 0Z" fill="#006164"></path><path d="M0 -378C70.5 -370.7 141 -363.3 189 -327.4C237 -291.4 262.4 -226.8 290.1 -167.5C317.9 -108.2 347.9 -54.1 378 0L0 0Z" fill="#007965"></path><path d="M0 -283.5C52.9 -278 105.8 -272.5 141.7 -245.5C177.7 -218.6 196.8 -170.1 217.6 -125.6C238.4 -81.1 260.9 -40.6 283.5 0L0 0Z" fill="#00905e"></path><path d="M0 -189C35.3 -185.3 70.5 -181.7 94.5 -163.7C118.5 -145.7 131.2 -113.4 145.1 -83.8C158.9 -54.1 174 -27 189 0L0 0Z" fill="#43a64f"></path><path d="M0 -94.5C17.6 -92.7 35.3 -90.8 47.2 -81.8C59.2 -72.9 65.6 -56.7 72.5 -41.9C79.5 -27 87 -13.5 94.5 0L0 0Z" fill="#63b046"></path></g></svg>