<svg id="visual" viewBox="0 0 1080 1920" width="1080" height="1920" xmlns="http://www.w3.org/2000/svg" xmlns:xlink="http://www.w3.org/1999/xlink" version="1.1"><rect x="0" y="0" width="1080" height="1920" fill="#001220"></rect><defs><linearGradient id="grad1_0" x1="0%" y1="0%" x2="100%" y2="100%"><stop offset="30%" stop-color="#63b046" stop-opacity="1"></stop><stop offset="70%" stop-color="#63b046" stop-opacity="1"></stop></linearGradient></defs><defs><linearGradient id="grad1_1" x1="0%" y1="0%" x2="100%" y2="100%"><stop offset="30%" stop-color="#63b046" stop-opacity="1"></stop><stop offset="70%" stop-color="#179b57" stop-opacity="1"></stop></linearGradient></defs><defs><linearGradient id="grad1_2" x1="0%" y1="0%" x2="100%" y2="100%"><stop offset="30%" stop-color="#008463" stop-opacity="1"></stop><stop offset="70%" stop-color="#179b57" stop-opacity="1"></stop></linearGradient></defs><defs><linearGradient id="grad1_3" x1="0%" y1="0%" x2="100%" y2="100%"><stop offset="30%" stop-color="#008463" stop-opacity="1"></stop><stop offset="70%" stop-color="#006d66" stop-opacity="1"></stop></linearGradient></defs><defs><linearGradient id="grad1_4" x1="0%" y1="0%" x2="100%" y2="100%"><stop offset="30%" stop-color="#005560" stop-opacity="1"></stop><stop offset="70%" stop-color="#006d66" stop-opacity="1"></stop></linearGradient></defs><defs><linearGradient id="grad1_5" x1="0%" y1="0%" x2="100%" y2="100%"><stop offset="30%" stop-color="#005560" stop-opacity="1"></stop><stop offset="70%" stop-color="#003d50" stop-opacity="1"></stop></linearGradient></defs><defs><linearGradient id="grad1_6" x1="0%" y1="0%" x2="100%" y2="100%"><stop offset="30%" stop-color="#00273a" stop-opacity="1"></stop><stop offset="70%" stop-color="#003d50" stop-opacity="1"></stop></linearGradient></defs><defs><linearGradient id="grad1_7" x1="0%" y1="0%" x2="100%" y2="100%"><stop offset="30%" stop-color="#00273a" stop-opacity="1"></stop><stop offset="70%" stop-color="#001220" stop-opacity="1"></stop></linearGradient></defs><defs><linearGradient id="grad2_0" x1="0%" y1="0%" x2="100%" y2="100%"><stop offset="30%" stop-color="#63b046" stop-opacity="1"></stop><stop offset="70%" stop-color="#63b046" stop-opacity="1"></stop></linearGradient></defs><defs><linearGradient id="grad2_1" x1="0%" y1="0%" x2="100%" y2="100%"><stop offset="30%" stop-color="#179b57" stop-opacity="1"></stop><stop offset="70%" stop-color="#63b046" stop-opacity="1"></stop></linearGradient></defs><defs><linearGradient id="grad2_2" x1="0%" y1="0%" x2="100%" y2="100%"><stop offset="30%" stop-color="#179b57" stop-opacity="1"></stop><stop offset="70%" stop-color="#008463" stop-opacity="1"></stop></linearGradient></defs><defs><linearGradient id="grad2_3" x1="0%" y1="0%" x2="100%" y2="100%"><stop offset="30%" stop-color="#006d66" stop-opacity="1"></stop><stop offset="70%" stop-color="#008463" stop-opacity="1"></stop></linearGradient></defs><defs><linearGradient id="grad2_4" x1="0%" y1="0%" x2="100%" y2="100%"><stop offset="30%" stop-color="#006d66" stop-opacity="1"></stop><stop offset="70%" stop-color="#005560" stop-opacity="1"></stop></linearGradient></defs><defs><linearGradient id="grad2_5" x1="0%" y1="0%" x2="100%" y2="100%"><stop offset="30%" stop-color="#003d50" stop-opacity="1"></stop><stop offset="70%" stop-color="#005560" stop-opacity="1"></stop></linearGradient></defs><defs><linearGradient id="grad2_6" x1="0%" y1="0%" x2="100%" y2="100%"><stop offset="30%" stop-color="#003d50" stop-opacity="1"></stop><stop offset="70%" stop-color="#00273a" stop-opacity="1"></stop></linearGradient></defs><defs><linearGradient id="grad2_7" x1="0%" y1="0%" x2="100%" y2="100%"><stop offset="30%" stop-color="#001220" stop-opacity="1"></stop><stop offset="70%" stop-color="#00273a" stop-opacity="1"></stop></linearGradient></defs><g transform="translate(1080, 0)"><path d="M0 773C-82.8 703.8 -165.5 634.7 -352.5 610.5C-539.5 586.4 -830.6 607.3 -888.5 513C-946.5 418.7 -771.2 209.4 -596 0L0 0Z" fill="#001c2d"></path><path d="M0 676.4C-72.4 615.9 -144.9 555.4 -308.4 534.2C-472 513.1 -726.8 531.4 -777.5 448.9C-828.2 366.4 -674.8 183.2 -521.5 0L0 0Z" fill="#003246"></path><path d="M0 579.8C-62.1 527.9 -124.2 476 -264.4 457.9C-404.6 439.8 -622.9 455.4 -666.4 384.8C-709.9 314.1 -578.4 157 -447 0L0 0Z" fill="#004959"></path><path d="M0 483.1C-51.7 439.9 -103.5 396.7 -220.3 381.6C-337.2 366.5 -519.1 379.5 -555.3 320.6C-591.6 261.7 -482 130.9 -372.5 0L0 0Z" fill="#006164"></path><path d="M0 386.5C-41.4 351.9 -82.8 317.3 -176.2 305.3C-269.7 293.2 -415.3 303.6 -444.3 256.5C-473.2 209.4 -385.6 104.7 -298 0L0 0Z" fill="#007965"></path><path d="M0 289.9C-31 263.9 -62.1 238 -132.2 229C-202.3 219.9 -311.5 227.7 -333.2 192.4C-354.9 157 -289.2 78.5 -223.5 0L0 0Z" fill="#00905e"></path><path d="M0 193.3C-20.7 176 -41.4 158.7 -88.1 152.6C-134.9 146.6 -207.6 151.8 -222.1 128.3C-236.6 104.7 -192.8 52.3 -149 0L0 0Z" fill="#43a64f"></path><path d="M0 96.6C-10.3 88 -20.7 79.3 -44.1 76.3C-67.4 73.3 -103.8 75.9 -111.1 64.1C-118.3 52.3 -96.4 26.2 -74.5 0L0 0Z" fill="#63b046"></path></g><g transform="translate(0, 1920)"><path d="M0 -685C61.9 -601.7 123.8 -518.5 297 -514.4C470.2 -510.4 754.8 -585.5 888.5 -513C1022.3 -440.5 1005.1 -220.2 988 0L0 0Z" fill="#001c2d"></path><path d="M0 -599.4C54.1 -526.5 108.3 -453.7 259.9 -450.1C411.5 -446.6 660.5 -512.3 777.5 -448.9C894.5 -385.4 879.5 -192.7 864.5 0L0 0Z" fill="#003246"></path><path d="M0 -513.7C46.4 -451.3 92.8 -388.9 222.7 -385.8C352.7 -382.8 566.1 -439.2 666.4 -384.8C766.7 -330.3 753.9 -165.2 741 0L0 0Z" fill="#004959"></path><path d="M0 -428.1C38.7 -376.1 77.4 -324 185.6 -321.5C293.9 -319 471.8 -366 555.3 -320.6C638.9 -275.3 628.2 -137.6 617.5 0L0 0Z" fill="#006164"></path><path d="M0 -342.5C30.9 -300.9 61.9 -259.2 148.5 -257.2C235.1 -255.2 377.4 -292.8 444.3 -256.5C511.1 -220.2 502.6 -110.1 494 0L0 0Z" fill="#007965"></path><path d="M0 -256.9C23.2 -225.7 46.4 -194.4 111.4 -192.9C176.3 -191.4 283.1 -219.6 333.2 -192.4C383.4 -165.2 376.9 -82.6 370.5 0L0 0Z" fill="#00905e"></path><path d="M0 -171.2C15.5 -150.4 30.9 -129.6 74.2 -128.6C117.6 -127.6 188.7 -146.4 222.1 -128.3C255.6 -110.1 251.3 -55.1 247 0L0 0Z" fill="#43a64f"></path><path d="M0 -85.6C7.7 -75.2 15.5 -64.8 37.1 -64.3C58.8 -63.8 94.4 -73.2 111.1 -64.1C127.8 -55.1 125.6 -27.5 123.5 0L0 0Z" fill="#63b046"></path></g></svg>