<svg id="visual" viewBox="0 0 1080 1920" width="1080" height="1920" xmlns="http://www.w3.org/2000/svg" xmlns:xlink="http://www.w3.org/1999/xlink" version="1.1"><rect x="0" y="0" width="1080" height="1920" fill="#001220"></rect><defs><linearGradient id="grad1_0" x1="0%" y1="0%" x2="100%" y2="100%"><stop offset="30%" stop-color="#fbae3c" stop-opacity="1"></stop><stop offset="70%" stop-color="#fbae3c" stop-opacity="1"></stop></linearGradient></defs><defs><linearGradient id="grad1_1" x1="0%" y1="0%" x2="100%" y2="100%"><stop offset="30%" stop-color="#fbae3c" stop-opacity="1"></stop><stop offset="70%" stop-color="#f48350" stop-opacity="1"></stop></linearGradient></defs><defs><linearGradient id="grad1_2" x1="0%" y1="0%" x2="100%" y2="100%"><stop offset="30%" stop-color="#d96162" stop-opacity="1"></stop><stop offset="70%" stop-color="#f48350" stop-opacity="1"></stop></linearGradient></defs><defs><linearGradient id="grad1_3" x1="0%" y1="0%" x2="100%" y2="100%"><stop offset="30%" stop-color="#d96162" stop-opacity="1"></stop><stop offset="70%" stop-color="#af4b6d" stop-opacity="1"></stop></linearGradient></defs><defs><linearGradient id="grad1_4" x1="0%" y1="0%" x2="100%" y2="100%"><stop offset="30%" stop-color="#7c3e6b" stop-opacity="1"></stop><stop offset="70%" stop-color="#af4b6d" stop-opacity="1"></stop></linearGradient></defs><defs><linearGradient id="grad1_5" x1="0%" y1="0%" x2="100%" y2="100%"><stop offset="30%" stop-color="#7c3e6b" stop-opacity="1"></stop><stop offset="70%" stop-color="#49335c" stop-opacity="1"></stop></linearGradient></defs><defs><linearGradient id="grad1_6" x1="0%" y1="0%" x2="100%" y2="100%"><stop offset="30%" stop-color="#1d2540" stop-opacity="1"></stop><stop offset="70%" stop-color="#49335c" stop-opacity="1"></stop></linearGradient></defs><defs><linearGradient id="grad1_7" x1="0%" y1="0%" x2="100%" y2="100%"><stop offset="30%" stop-color="#1d2540" stop-opacity="1"></stop><stop offset="70%" stop-color="#001220" stop-opacity="1"></stop></linearGradient></defs><defs><linearGradient id="grad2_0" x1="0%" y1="0%" x2="100%" y2="100%"><stop offset="30%" stop-color="#fbae3c" stop-opacity="1"></stop><stop offset="70%" stop-color="#fbae3c" stop-opacity="1"></stop></linearGradient></defs><defs><linearGradient id="grad2_1" x1="0%" y1="0%" x2="100%" y2="100%"><stop offset="30%" stop-color="#f48350" stop-opacity="1"></stop><stop offset="70%" stop-color="#fbae3c" stop-opacity="1"></stop></linearGradient></defs><defs><linearGradient id="grad2_2" x1="0%" y1="0%" x2="100%" y2="100%"><stop offset="30%" stop-color="#f48350" stop-opacity="1"></stop><stop offset="70%" stop-color="#d96162" stop-opacity="1"></stop></linearGradient></defs><defs><linearGradient id="grad2_3" x1="0%" y1="0%" x2="100%" y2="100%"><stop offset="30%" stop-color="#af4b6d" stop-opacity="1"></stop><stop offset="70%" stop-color="#d96162" stop-opacity="1"></stop></linearGradient></defs><defs><linearGradient id="grad2_4" x1="0%" y1="0%" x2="100%" y2="100%"><stop offset="30%" stop-color="#af4b6d" stop-opacity="1"></stop><stop offset="70%" stop-color="#7c3e6b" stop-opacity="1"></stop></linearGradient></defs><defs><linearGradient id="grad2_5" x1="0%" y1="0%" x2="100%" y2="100%"><stop offset="30%" stop-color="#49335c" stop-opacity="1"></stop><stop offset="70%" stop-color="#7c3e6b" stop-opacity="1"></stop></linearGradient></defs><defs><linearGradient id="grad2_6" x1="0%" y1="0%" x2="100%" y2="100%"><stop offset="30%" stop-color="#49335c" stop-opacity="1"></stop><stop offset="70%" stop-color="#1d2540" stop-opacity="1"></stop></linearGradient></defs><defs><linearGradient id="grad2_7" x1="0%" y1="0%" x2="100%" y2="100%"><stop offset="30%" stop-color="#001220" stop-opacity="1"></stop><stop offset="70%" stop-color="#1d2540" stop-opacity="1"></stop></linearGradient></defs><g transform="translate(1080, 0)"><path d="M0 756C-137.3 739.2 -274.7 722.4 -378 654.7C-481.3 587.1 -550.6 468.6 -607.9 351C-665.3 233.4 -710.6 116.7 -756 0L0 0Z" fill="#0c1c30"></path><path d="M0 661.5C-120.2 646.8 -240.3 632.1 -330.7 572.9C-421.2 513.7 -481.8 410 -532 307.1C-582.1 204.2 -621.8 102.1 -661.5 0L0 0Z" fill="#312c4f"></path><path d="M0 567C-103 554.4 -206 541.8 -283.5 491C-361 440.3 -413 351.4 -456 263.3C-499 175.1 -533 87.5 -567 0L0 0Z" fill="#623965"></path><path d="M0 472.5C-85.8 462 -171.7 451.5 -236.2 409.2C-300.8 366.9 -344.1 292.9 -380 219.4C-415.8 145.9 -444.1 72.9 -472.5 0L0 0Z" fill="#96446e"></path><path d="M0 378C-68.7 369.6 -137.3 361.2 -189 327.4C-240.7 293.5 -275.3 234.3 -304 175.5C-332.6 116.7 -355.3 58.4 -378 0L0 0Z" fill="#c55469"></path><path d="M0 283.5C-51.5 277.2 -103 270.9 -141.7 245.5C-180.5 220.2 -206.5 175.7 -228 131.6C-249.5 87.5 -266.5 43.8 -283.5 0L0 0Z" fill="#e9705a"></path><path d="M0 189C-34.3 184.8 -68.7 180.6 -94.5 163.7C-120.3 146.8 -137.7 117.1 -152 87.8C-166.3 58.4 -177.7 29.2 -189 0L0 0Z" fill="#fa9845"></path><path d="M0 94.5C-17.2 92.4 -34.3 90.3 -47.2 81.8C-60.2 73.4 -68.8 58.6 -76 43.9C-83.2 29.2 -88.8 14.6 -94.5 0L0 0Z" fill="#fbae3c"></path></g><g transform="translate(0, 1920)"><path d="M0 -756C57.5 -608.1 115 -460.2 240 -415.7C365 -371.2 557.5 -430.1 654.7 -378C752 -325.9 754 -163 756 0L0 0Z" fill="#0c1c30"></path><path d="M0 -661.5C50.3 -532.1 100.6 -402.7 210 -363.7C319.4 -324.8 487.8 -376.3 572.9 -330.8C658 -285.2 659.7 -142.6 661.5 0L0 0Z" fill="#312c4f"></path><path d="M0 -567C43.1 -456.1 86.3 -345.2 180 -311.8C273.7 -278.4 418.1 -322.5 491 -283.5C564 -244.5 565.5 -122.2 567 0L0 0Z" fill="#623965"></path><path d="M0 -472.5C35.9 -380.1 71.9 -287.6 150 -259.8C228.1 -232 348.4 -268.8 409.2 -236.3C470 -203.7 471.2 -101.9 472.5 0L0 0Z" fill="#96446e"></path><path d="M0 -378C28.8 -304.1 57.5 -230.1 120 -207.8C182.5 -185.6 278.7 -215 327.4 -189C376 -163 377 -81.5 378 0L0 0Z" fill="#c55469"></path><path d="M0 -283.5C21.6 -228 43.1 -172.6 90 -155.9C136.9 -139.2 209.1 -161.3 245.5 -141.8C282 -122.2 282.7 -61.1 283.5 0L0 0Z" fill="#e9705a"></path><path d="M0 -189C14.4 -152 28.8 -115.1 60 -103.9C91.2 -92.8 139.4 -107.5 163.7 -94.5C188 -81.5 188.5 -40.7 189 0L0 0Z" fill="#fa9845"></path><path d="M0 -94.5C7.2 -76 14.4 -57.5 30 -52C45.6 -46.4 69.7 -53.8 81.8 -47.3C94 -40.7 94.2 -20.4 94.5 0L0 0Z" fill="#fbae3c"></path></g></svg>