<svg id="visual" viewBox="0 0 1080 1920" width="1080" height="1920" xmlns="http://www.w3.org/2000/svg" xmlns:xlink="http://www.w3.org/1999/xlink" version="1.1"><rect x="0" y="0" width="1080" height="1920" fill="#001220"></rect><defs><linearGradient id="grad1_0" x1="0%" y1="0%" x2="100%" y2="100%"><stop offset="30%" stop-color="#63b046" stop-opacity="1"></stop><stop offset="70%" stop-color="#63b046" stop-opacity="1"></stop></linearGradient></defs><defs><linearGradient id="grad1_1" x1="0%" y1="0%" x2="100%" y2="100%"><stop offset="30%" stop-color="#63b046" stop-opacity="1"></stop><stop offset="70%" stop-color="#179b57" stop-opacity="1"></stop></linearGradient></defs><defs><linearGradient id="grad1_2" x1="0%" y1="0%" x2="100%" y2="100%"><stop offset="30%" stop-color="#008463" stop-opacity="1"></stop><stop offset="70%" stop-color="#179b57" stop-opacity="1"></stop></linearGradient></defs><defs><linearGradient id="grad1_3" x1="0%" y1="0%" x2="100%" y2="100%"><stop offset="30%" stop-color="#008463" stop-opacity="1"></stop><stop offset="70%" stop-color="#006d66" stop-opacity="1"></stop></linearGradient></defs><defs><linearGradient id="grad1_4" x1="0%" y1="0%" x2="100%" y2="100%"><stop offset="30%" stop-color="#005560" stop-opacity="1"></stop><stop offset="70%" stop-color="#006d66" stop-opacity="1"></stop></linearGradient></defs><defs><linearGradient id="grad1_5" x1="0%" y1="0%" x2="100%" y2="100%"><stop offset="30%" stop-color="#005560" stop-opacity="1"></stop><stop offset="70%" stop-color="#003d50" stop-opacity="1"></stop></linearGradient></defs><defs><linearGradient id="grad1_6" x1="0%" y1="0%" x2="100%" y2="100%"><stop offset="30%" stop-color="#00273a" stop-opacity="1"></stop><stop offset="70%" stop-color="#003d50" stop-opacity="1"></stop></linearGradient></defs><defs><linearGradient id="grad1_7" x1="0%" y1="0%" x2="100%" y2="100%"><stop offset="30%" stop-color="#00273a" stop-opacity="1"></stop><stop offset="70%" stop-color="#001220" stop-opacity="1"></stop></linearGradient></defs><defs><linearGradient id="grad2_0" x1="0%" y1="0%" x2="100%" y2="100%"><stop offset="30%" stop-color="#63b046" stop-opacity="1"></stop><stop offset="70%" stop-color="#63b046" stop-opacity="1"></stop></linearGradient></defs><defs><linearGradient id="grad2_1" x1="0%" y1="0%" x2="100%" y2="100%"><stop offset="30%" stop-color="#179b57" stop-opacity="1"></stop><stop offset="70%" stop-color="#63b046" stop-opacity="1"></stop></linearGradient></defs><defs><linearGradient id="grad2_2" x1="0%" y1="0%" x2="100%" y2="100%"><stop offset="30%" stop-color="#179b57" stop-opacity="1"></stop><stop offset="70%" stop-color="#008463" stop-opacity="1"></stop></linearGradient></defs><defs><linearGradient id="grad2_3" x1="0%" y1="0%" x2="100%" y2="100%"><stop offset="30%" stop-color="#006d66" stop-opacity="1"></stop><stop offset="70%" stop-color="#008463" stop-opacity="1"></stop></linearGradient></defs><defs><linearGradient id="grad2_4" x1="0%" y1="0%" x2="100%" y2="100%"><stop offset="30%" stop-color="#006d66" stop-opacity="1"></stop><stop offset="70%" stop-color="#005560" stop-opacity="1"></stop></linearGradient></defs><defs><linearGradient id="grad2_5" x1="0%" y1="0%" x2="100%" y2="100%"><stop offset="30%" stop-color="#003d50" stop-opacity="1"></stop><stop offset="70%" stop-color="#005560" stop-opacity="1"></stop></linearGradient></defs><defs><linearGradient id="grad2_6" x1="0%" y1="0%" x2="100%" y2="100%"><stop offset="30%" stop-color="#003d50" stop-opacity="1"></stop><stop offset="70%" stop-color="#00273a" stop-opacity="1"></stop></linearGradient></defs><defs><linearGradient id="grad2_7" x1="0%" y1="0%" x2="100%" y2="100%"><stop offset="30%" stop-color="#001220" stop-opacity="1"></stop><stop offset="70%" stop-color="#00273a" stop-opacity="1"></stop></linearGradient></defs><g transform="translate(1080, 0)"><path d="M0 810C-144.2 790.3 -288.3 770.5 -405 701.5C-521.7 632.4 -610.8 514.1 -673.8 389C-736.7 263.9 -773.3 131.9 -810 0L0 0Z" fill="#001c2d"></path><path d="M0 708.8C-126.1 691.5 -252.3 674.2 -354.4 613.8C-456.5 553.4 -534.5 449.9 -589.5 340.4C-644.6 230.9 -676.7 115.4 -708.7 0L0 0Z" fill="#003246"></path><path d="M0 607.5C-108.1 592.7 -216.2 577.9 -303.7 526.1C-391.3 474.3 -458.1 385.6 -505.3 291.8C-552.5 197.9 -580 99 -607.5 0L0 0Z" fill="#004959"></path><path d="M0 506.3C-90.1 493.9 -180.2 481.6 -253.1 438.4C-326 395.3 -381.8 321.3 -421.1 243.1C-460.4 164.9 -483.3 82.5 -506.2 0L0 0Z" fill="#006164"></path><path d="M0 405C-72.1 395.1 -144.2 385.3 -202.5 350.7C-260.8 316.2 -305.4 257.1 -336.9 194.5C-368.3 131.9 -386.7 66 -405 0L0 0Z" fill="#007965"></path><path d="M0 303.8C-54.1 296.3 -108.1 288.9 -151.9 263.1C-195.6 237.2 -229.1 192.8 -252.7 145.9C-276.3 99 -290 49.5 -303.7 0L0 0Z" fill="#00905e"></path><path d="M0 202.5C-36 197.6 -72.1 192.6 -101.2 175.4C-130.4 158.1 -152.7 128.5 -168.4 97.3C-184.2 66 -193.3 33 -202.5 0L0 0Z" fill="#43a64f"></path><path d="M0 101.3C-18 98.8 -36 96.3 -50.6 87.7C-65.2 79.1 -76.4 64.3 -84.2 48.6C-92.1 33 -96.7 16.5 -101.2 0L0 0Z" fill="#63b046"></path></g><g transform="translate(0, 1920)"><path d="M0 -810C86.3 -694.4 172.7 -578.7 303.5 -525.7C434.3 -472.6 609.6 -482.2 701.5 -405C793.3 -327.8 801.7 -163.9 810 0L0 0Z" fill="#001c2d"></path><path d="M0 -708.7C75.5 -607.6 151.1 -506.4 265.6 -460C380 -413.6 533.4 -421.9 613.8 -354.4C694.1 -286.8 701.4 -143.4 708.8 0L0 0Z" fill="#003246"></path><path d="M0 -607.5C64.8 -520.8 129.5 -434 227.6 -394.3C325.7 -354.5 457.2 -361.6 526.1 -303.8C595 -245.9 601.2 -122.9 607.5 0L0 0Z" fill="#004959"></path><path d="M0 -506.2C54 -434 107.9 -361.7 189.7 -328.5C271.5 -295.4 381 -301.4 438.4 -253.1C495.8 -204.9 501 -102.4 506.3 0L0 0Z" fill="#006164"></path><path d="M0 -405C43.2 -347.2 86.3 -289.4 151.7 -262.8C217.2 -236.3 304.8 -241.1 350.7 -202.5C396.7 -163.9 400.8 -82 405 0L0 0Z" fill="#007965"></path><path d="M0 -303.7C32.4 -260.4 64.8 -217 113.8 -197.1C162.9 -177.2 228.6 -180.8 263.1 -151.9C297.5 -122.9 300.6 -61.5 303.8 0L0 0Z" fill="#00905e"></path><path d="M0 -202.5C21.6 -173.6 43.2 -144.7 75.9 -131.4C108.6 -118.2 152.4 -120.5 175.4 -101.3C198.3 -82 200.4 -41 202.5 0L0 0Z" fill="#43a64f"></path><path d="M0 -101.2C10.8 -86.8 21.6 -72.3 37.9 -65.7C54.3 -59.1 76.2 -60.3 87.7 -50.6C99.2 -41 100.2 -20.5 101.3 0L0 0Z" fill="#63b046"></path></g></svg>