<svg id="visual" viewBox="0 0 1080 1920" width="1080" height="1920" xmlns="http://www.w3.org/2000/svg" xmlns:xlink="http://www.w3.org/1999/xlink" version="1.1"><rect x="0" y="0" width="1080" height="1920" fill="#001122"></rect><path d="M0 1078L83 1078L83 916L166 916L166 1218L249 1218L249 948L332 948L332 1222L415 1222L415 955L498 955L498 1067L582 1067L582 1063L665 1063L665 1103L748 1103L748 875L831 875L831 923L914 923L914 1221L997 1221L997 1033L1080 1033L1080 962L1080 1921L1080 1921L997 1921L997 1921L914 1921L914 1921L831 1921L831 1921L748 1921L748 1921L665 1921L665 1921L582 1921L582 1921L498 1921L498 1921L415 1921L415 1921L332 1921L332 1921L249 1921L249 1921L166 1921L166 1921L83 1921L83 1921L0 1921Z" fill="#263d1d"></path><path d="M0 1203L83 1203L83 1263L166 1263L166 1073L249 1073L249 1249L332 1249L332 1121L415 1121L415 1046L498 1046L498 1046L582 1046L582 1020L665 1020L665 1220L748 1220L748 1227L831 1227L831 1002L914 1002L914 1221L997 1221L997 1001L1080 1001L1080 1277L1080 1921L1080 1921L997 1921L997 1921L914 1921L914 1921L831 1921L831 1921L748 1921L748 1921L665 1921L665 1921L582 1921L582 1921L498 1921L498 1921L415 1921L415 1921L332 1921L332 1921L249 1921L249 1921L166 1921L166 1921L83 1921L83 1921L0 1921Z" fill="#2f4f24"></path><path d="M0 1279L83 1279L83 1332L166 1332L166 1416L249 1416L249 1302L332 1302L332 1291L415 1291L415 1210L498 1210L498 1297L582 1297L582 1419L665 1419L665 1145L748 1145L748 1197L831 1197L831 1232L914 1232L914 1286L997 1286L997 1179L1080 1179L1080 1425L1080 1921L1080 1921L997 1921L997 1921L914 1921L914 1921L831 1921L831 1921L748 1921L748 1921L665 1921L665 1921L582 1921L582 1921L498 1921L498 1921L415 1921L415 1921L332 1921L332 1921L249 1921L249 1921L166 1921L166 1921L83 1921L83 1921L0 1921Z" fill="#39612a"></path><path d="M0 1330L83 1330L83 1333L166 1333L166 1424L249 1424L249 1516L332 1516L332 1507L415 1507L415 1408L498 1408L498 1513L582 1513L582 1379L665 1379L665 1407L748 1407L748 1342L831 1342L831 1347L914 1347L914 1272L997 1272L997 1512L1080 1512L1080 1318L1080 1921L1080 1921L997 1921L997 1921L914 1921L914 1921L831 1921L831 1921L748 1921L748 1921L665 1921L665 1921L582 1921L582 1921L498 1921L498 1921L415 1921L415 1921L332 1921L332 1921L249 1921L249 1921L166 1921L166 1921L83 1921L83 1921L0 1921Z" fill="#437431"></path><path d="M0 1487L83 1487L83 1510L166 1510L166 1502L249 1502L249 1597L332 1597L332 1501L415 1501L415 1621L498 1621L498 1556L582 1556L582 1610L665 1610L665 1539L748 1539L748 1499L831 1499L831 1503L914 1503L914 1528L997 1528L997 1592L1080 1592L1080 1475L1080 1921L1080 1921L997 1921L997 1921L914 1921L914 1921L831 1921L831 1921L748 1921L748 1921L665 1921L665 1921L582 1921L582 1921L498 1921L498 1921L415 1921L415 1921L332 1921L332 1921L249 1921L249 1921L166 1921L166 1921L83 1921L83 1921L0 1921Z" fill="#4d8738"></path><path d="M0 1658L83 1658L83 1641L166 1641L166 1585L249 1585L249 1552L332 1552L332 1549L415 1549L415 1631L498 1631L498 1715L582 1715L582 1670L665 1670L665 1606L748 1606L748 1710L831 1710L831 1658L914 1658L914 1718L997 1718L997 1700L1080 1700L1080 1631L1080 1921L1080 1921L997 1921L997 1921L914 1921L914 1921L831 1921L831 1921L748 1921L748 1921L665 1921L665 1921L582 1921L582 1921L498 1921L498 1921L415 1921L415 1921L332 1921L332 1921L249 1921L249 1921L166 1921L166 1921L83 1921L83 1921L0 1921Z" fill="#589c3f"></path><path d="M0 1782L83 1782L83 1686L166 1686L166 1722L249 1722L249 1715L332 1715L332 1759L415 1759L415 1756L498 1756L498 1696L582 1696L582 1723L665 1723L665 1767L748 1767L748 1736L831 1736L831 1714L914 1714L914 1699L997 1699L997 1733L1080 1733L1080 1813L1080 1921L1080 1921L997 1921L997 1921L914 1921L914 1921L831 1921L831 1921L748 1921L748 1921L665 1921L665 1921L582 1921L582 1921L498 1921L498 1921L415 1921L415 1921L332 1921L332 1921L249 1921L249 1921L166 1921L166 1921L83 1921L83 1921L0 1921Z" fill="#63b046"></path></svg>