<svg id="visual" viewBox="0 0 1080 1920" width="1080" height="1920" xmlns="http://www.w3.org/2000/svg" xmlns:xlink="http://www.w3.org/1999/xlink" version="1.1"><path d="M0 39L98 135L196 97L295 97L393 116L491 135L589 39L687 116L785 135L884 59L982 78L1080 39L1080 0L982 0L884 0L785 0L687 0L589 0L491 0L393 0L295 0L196 0L98 0L0 0Z" fill="#00cc8e"></path><path d="M0 116L98 251L196 135L295 116L393 155L491 212L589 97L687 155L785 174L884 116L982 116L1080 78L1080 37L982 76L884 57L785 133L687 114L589 37L491 133L393 114L295 95L196 95L98 133L0 37Z" fill="#00bb96"></path><path d="M0 231L98 404L196 347L295 308L393 289L491 481L589 212L687 404L785 347L884 212L982 193L1080 193L1080 76L982 114L884 114L785 172L687 153L589 95L491 210L393 153L295 114L196 133L98 249L0 114Z" fill="#00a999"></path><path d="M0 404L98 577L196 462L295 539L393 404L491 635L589 462L687 577L785 539L884 347L982 251L1080 347L1080 191L982 191L884 210L785 345L687 402L589 210L491 479L393 287L295 306L196 345L98 402L0 229Z" fill="#009798"></path><path d="M0 865L98 1038L196 692L295 923L393 846L491 923L589 807L687 692L785 846L884 596L982 519L1080 750L1080 345L982 249L884 345L785 537L687 575L589 460L491 633L393 402L295 537L196 460L98 575L0 402Z" fill="#008491"></path><path d="M0 1038L98 1076L196 731L295 980L393 999L491 999L589 903L687 750L785 980L884 750L982 673L1080 865L1080 748L982 517L884 594L785 844L687 690L589 805L491 921L393 844L295 921L196 690L98 1036L0 863Z" fill="#007285"></path><path d="M0 1134L98 1268L196 827L295 1076L393 1057L491 1115L589 1095L687 961L785 1115L884 923L982 865L1080 980L1080 863L982 671L884 748L785 978L687 748L589 901L491 997L393 997L295 978L196 729L98 1074L0 1036Z" fill="#006075"></path><path d="M0 1479L98 1364L196 1153L295 1172L393 1268L491 1249L589 1249L687 1153L785 1364L884 1153L982 980L1080 1230L1080 978L982 863L884 921L785 1113L687 959L589 1093L491 1113L393 1055L295 1074L196 825L98 1266L0 1132Z" fill="#024f65"></path><path d="M0 1518L98 1422L196 1249L295 1211L393 1326L491 1268L589 1268L687 1249L785 1441L884 1211L982 1057L1080 1287L1080 1228L982 978L884 1151L785 1362L687 1151L589 1247L491 1247L393 1266L295 1170L196 1151L98 1362L0 1477Z" fill="#043e55"></path><path d="M0 1652L98 1479L196 1345L295 1268L393 1422L491 1422L589 1307L687 1287L785 1595L884 1326L982 1211L1080 1441L1080 1285L982 1055L884 1209L785 1439L687 1247L589 1266L491 1266L393 1324L295 1209L196 1247L98 1420L0 1516Z" fill="#052f44"></path><path d="M0 1691L98 1518L196 1422L295 1422L393 1556L491 1518L589 1422L687 1383L785 1691L884 1383L982 1307L1080 1499L1080 1439L982 1209L884 1324L785 1593L687 1285L589 1305L491 1420L393 1420L295 1266L196 1343L98 1477L0 1650Z" fill="#042033"></path><path d="M0 1921L98 1921L196 1921L295 1921L393 1921L491 1921L589 1921L687 1921L785 1921L884 1921L982 1921L1080 1921L1080 1497L982 1305L884 1381L785 1689L687 1381L589 1420L491 1516L393 1554L295 1420L196 1420L98 1516L0 1689Z" fill="#001122"></path></svg>